<svg xmlns="http://www.w3.org/2000/svg" width="2555" height="2555"><path d="M867 76.043c-43.218 3.766-78.972 13.641-117.5 32.453C659.562 152.409 594.409 236.442 574.66 334c-5.037 24.883-6.06 35.684-6.059 64 .001 27.735.76 36.906 5.009 60.5 15.182 84.305 66.203 162.084 137.39 209.446 5.225 3.477 9.841 6.624 10.257 6.995.417.37-.115 6.498-1.181 13.616-5.168 34.514-6.725 89.541-3.562 125.934 10.747 123.651 57.214 235.043 137.355 329.272 6.672 7.845 12.131 14.448 12.131 14.675 0 .226-4.927 3.818-10.948 7.982-6.022 4.163-15.994 11.397-22.161 16.075-6.167 4.678-11.541 8.505-11.943 8.505-.402 0-4.942-2.493-10.089-5.54-38.36-22.704-79.238-36.812-124.859-43.09-16.027-2.206-60.34-2.505-76.5-.517-66.053 8.128-123.774 33.121-174 75.344-11.929 10.028-33.151 31.87-43.045 44.303-40.033 50.306-63.508 108.653-69.517 172.78-1.752 18.7-.708 58.323 2.008 76.22 8.584 56.563 31.741 109.945 67.022 154.5 10.657 13.457 38.492 41.252 52.032 51.955 35.697 28.218 78.048 49.33 120.21 59.925l11.198 2.814 2.695 15.403c1.481 8.472 4.09 21.608 5.795 29.192 1.706 7.584 3.102 14.459 3.102 15.277 0 .818-3.295 5.413-7.323 10.211-86.578 103.13-87.166 267.556-1.467 410.723 49.071 81.979 124.249 151.414 206.29 190.535 59.728 28.481 115.452 41.111 175 39.663 40.096-.974 74.093-8.137 108.5-22.861 49.474-21.171 92.933-58.948 120.764-104.977 3.445-5.698 6.615-10.912 7.044-11.586.614-.964 3.334-.92 12.736.206 42.52 5.092 119.095 6.102 150.104 1.979l4.149-.551 5.283 9.296c38.895 68.434 104.211 114.752 182.92 129.716 21.438 4.076 27.937 4.58 59 4.574 34.401-.008 46.221-1.194 76-7.631 168.474-36.413 317.851-190.381 352.527-363.363 18.527-92.423 4.589-177.711-40.148-245.668l-6.365-9.668 1.918-6.332c6.455-21.312 13.446-52.655 17.026-76.332 1.164-7.7 2.337-15.42 2.607-17.155.475-3.055.686-3.177 6.712-3.847 33.431-3.716 70.237-14.482 102.223-29.9 35.443-17.084 63.666-37.564 92-66.759 49.899-51.416 79.897-114.475 89.12-187.339 2.389-18.875 2.421-55.61.065-75-13.421-110.462-79.096-203.847-178.185-253.364-30.623-15.303-64.136-25.574-100.232-30.719-14.927-2.128-54.953-2.976-70.963-1.503-64.436 5.926-121.361 28.525-172.878 68.633l-8.074 6.286-4.426-3.56c-8.043-6.469-30.292-22.82-38.427-28.242-4.4-2.933-8.198-5.499-8.44-5.704-.242-.205 1.604-2.5 4.102-5.1 2.498-2.6 8.809-9.902 14.024-16.227 76.725-93.055 121.056-201.219 131.973-322 1.951-21.589 1.696-78.146-.451-99.842-.944-9.538-1.952-18.313-2.241-19.5-.451-1.853.715-2.852 8.254-7.074 48.3-27.047 93.35-72.544 121.376-122.584 27.669-49.4 41.162-101.34 41.177-158.5.013-51.867-10.127-95.822-32.758-142-21.375-43.614-51.393-80.932-89.446-111.195-47.877-38.076-103.677-60.879-167.57-68.478-13.648-1.624-52.13-1.597-67 .046-63.754 7.044-120.681 30.283-169.547 69.213-12.45 9.919-33.266 30.027-43.232 41.763a2207.26 2207.26 0 01-9.746 11.417l-2.525 2.914-14.975-4.064c-60.872-16.52-125.488-22.98-186.475-18.641-34.251 2.437-69.459 7.772-96.167 14.573-4.216 1.074-8.127 1.952-8.691 1.952-.564 0-3.168-2.813-5.787-6.25-19.218-25.226-46.588-50.714-74.855-69.709-43.628-29.317-92.01-47-145-52.994-13.129-1.485-47.347-2.062-59.5-1.004m35.75 83.619c.688.278 1.813.278 2.5 0 .688-.277.125-.504-1.25-.504s-1.937.227-1.25.504m799.519 10.031c.973.254 2.323.237 3-.037.677-.274-.119-.481-1.769-.461-1.65.02-2.204.244-1.231.498M727.924 223.75l-2.424 2.75 2.75-2.424c1.513-1.334 2.75-2.571 2.75-2.75 0-.785-.81-.146-3.076 2.424M1880 233.5c1.292 1.375 2.574 2.5 2.849 2.5.275 0-.557-1.125-1.849-2.5-1.292-1.375-2.574-2.5-2.849-2.5-.275 0 .557 1.125 1.849 2.5m-331 3c-2.429 2.475-4.191 4.5-3.916 4.5.275 0 2.487-2.025 4.916-4.5 2.429-2.475 4.191-4.5 3.916-4.5-.275 0-2.487 2.025-4.916 4.5m-833.076-.75l-2.424 2.75 2.75-2.424c2.57-2.266 3.209-3.076 2.424-3.076-.179 0-1.416 1.238-2.75 2.75M1889 242.313c0 .172 1.463 1.635 3.25 3.25l3.25 2.937-2.937-3.25c-2.738-3.029-3.563-3.71-3.563-2.937m-573.731 30.38c.973.254 2.323.237 3-.037.677-.274-.119-.481-1.769-.461-1.65.02-2.204.244-1.231.498M1956.158 397c0 1.375.227 1.938.504 1.25.278-.687.278-1.812 0-2.5-.277-.687-.504-.125-.504 1.25m-1304 19c0 1.375.227 1.938.504 1.25.278-.687.278-1.812 0-2.5-.277-.687-.504-.125-.504 1.25m1303.921-.417c.048 1.165.285 1.402.604.605.289-.722.253-1.585-.079-1.917-.332-.332-.568.258-.525 1.312M1022.872 522.75c-1.243 1.586-1.208 1.621.378.378.963-.755 1.75-1.543 1.75-1.75 0-.823-.821-.294-2.128 1.372M1138.5 524c.995 1.1 2.035 2 2.31 2 .275 0-.315-.9-1.31-2-.995-1.1-2.035-2-2.31-2-.275 0 .315.9 1.31 2m-119.628 2.75c-1.243 1.586-1.208 1.621.378.378 1.666-1.307 2.195-2.128 1.372-2.128-.207 0-.995.788-1.75 1.75m444.533 4.5l-1.905 2.25 2.25-1.905c2.114-1.79 2.705-2.595 1.905-2.595-.19 0-1.202 1.013-2.25 2.25m431.467 37.5c-1.243 1.586-1.208 1.621.378.378.963-.755 1.75-1.543 1.75-1.75 0-.823-.821-.294-2.128 1.372m-731.793 9.833c.048 1.165.285 1.402.604.605.289-.722.253-1.585-.079-1.917-.332-.332-.568.258-.525 1.312m712.326 9.667l-1.905 2.25 2.25-1.905c2.114-1.79 2.705-2.595 1.905-2.595-.19 0-1.202 1.013-2.25 2.25m-712.326.333c.048 1.165.285 1.402.604.605.289-.722.253-1.585-.079-1.917-.332-.332-.568.258-.525 1.312m-166 2c.048 1.165.285 1.402.604.605.289-.722.253-1.585-.079-1.917-.332-.332-.568.258-.525 1.312m145.793 47.167c-1.243 1.586-1.208 1.621.378.378.963-.755 1.75-1.543 1.75-1.75 0-.823-.821-.294-2.128 1.372m-9 9c-1.243 1.586-1.208 1.621.378.378.963-.755 1.75-1.543 1.75-1.75 0-.823-.821-.294-2.128 1.372m156.397-.057c.973.254 2.323.237 3-.037.677-.274-.119-.481-1.769-.461-1.65.02-2.204.244-1.231.498m-11.456 48.99c.721.289 1.584.253 1.916-.079.332-.332-.258-.568-1.312-.525-1.165.048-1.402.285-.604.604m24 0c.721.289 1.584.253 1.916-.079.332-.332-.258-.568-1.312-.525-1.165.048-1.402.285-.604.604m-208.376 28.567l-2.937 3.25 3.25-2.937c3.029-2.738 3.71-3.563 2.937-3.563-.172 0-1.635 1.462-3.25 3.25m199.313 10.412c.688.278 1.813.278 2.5 0 .688-.277.125-.504-1.25-.504s-1.937.227-1.25.504m-213.826 4.088l-2.424 2.75 2.75-2.424c2.57-2.266 3.209-3.076 2.424-3.076-.179 0-1.416 1.237-2.75 2.75m709.155 2.833c.048 1.165.285 1.402.604.605.289-.722.253-1.585-.079-1.917-.332-.332-.568.258-.525 1.312m-553.674 17.667l-1.905 2.25 2.25-1.905c2.114-1.79 2.705-2.595 1.905-2.595-.19 0-1.202 1.013-2.25 2.25m-437.119 9.25c.008 2.75.202 3.756.432 2.236.229-1.52.223-3.77-.014-5-.237-1.23-.425.014-.418 2.764M1531.232 932c0 1.925.206 2.712.457 1.75.252-.962.252-2.538 0-3.5-.251-.962-.457-.175-.457 1.75m-.037 6.5c.02 1.65.244 2.204.498 1.231.254-.973.237-2.323-.037-3-.274-.677-.481.119-.461 1.769M1149 977.313c0 .172 1.463 1.635 3.25 3.25l3.25 2.937-2.937-3.25c-2.738-3.029-3.563-3.71-3.563-2.937m308.813 2.37c.721.289 1.584.253 1.916-.079.332-.332-.258-.568-1.312-.525-1.165.048-1.402.285-.604.604M1339.5 1005c.995 1.1 2.035 2 2.31 2 .275 0-.315-.9-1.31-2-.995-1.1-2.035-2-2.31-2-.275 0 .315.9 1.31 2m-428.204 18.436c-.442.789-2.049 1.661-3.57 1.937-1.588.288-2.52.103-2.187-.436.318-.515.102-.937-.48-.937s-1.059.675-1.059 1.5-.477 1.5-1.059 1.5-.781-.45-.441-1 .194-1-.324-1c-.519 0-1.178.9-1.466 2-.287 1.1-1.07 2-1.739 2-.893 0-.851-.449.157-1.692 2.431-2.997-1.287-.273-3.955 2.898-1.293 1.537-2.873 2.778-3.512 2.758-.639-.02.189-1.211 1.839-2.647 3.475-3.025 1.007-1.459-6.347 4.027-5.278 3.937-7.114 6.171-2.688 3.271 3.815-2.5 3.914-1.927.292 1.694-1.82 1.82-5.024 6.573-7.12 10.562l-3.811 7.252 3.837-.706c2.11-.388 4.124-1.148 4.475-1.689a1.208 1.208 0 011.637-.367c.549.339 1.532-.026 2.185-.813.652-.786 1.766-1.207 2.475-.934 1.575.604 14.5-8.968 17.707-13.114 1.277-1.65 2.667-3.15 3.09-3.333.422-.184.768-.902.768-1.597s.9-2.302 2-3.57c1.1-1.268 2-2.89 2-3.603 0-.714.788-1.772 1.75-2.353 1.449-.874 1.278-.979-1-.616-3.278.524-3.748-1.097-.5-1.722l2.25-.434-2.2-.136c-1.21-.075-2.562.51-3.004 1.3m16.954-.747c.962.252 2.538.252 3.5 0 .962-.251.175-.457-1.75-.457s-2.712.206-1.75.457m532.696 3.061l-3.446 3.75 3.75-3.446c3.49-3.208 4.21-4.054 3.446-4.054-.167 0-1.854 1.688-3.75 3.75M1139 1029.378c0 .207.787.995 1.75 1.75 1.586 1.243 1.621 1.208.378-.378-1.307-1.666-2.128-2.195-2.128-1.372m142.453 4.872l-3.953 4.25 4.25-3.953c3.952-3.676 4.71-4.547 3.953-4.547-.163 0-2.076 1.912-4.25 4.25M957 1033.378c0 .207.788.995 1.75 1.75 1.586 1.243 1.621 1.208.378-.378-1.307-1.666-2.128-2.195-2.128-1.372m22 26c0 .207.788.995 1.75 1.75 1.586 1.243 1.621 1.208.378-.378-1.307-1.666-2.128-2.195-2.128-1.372m4 5c0 .207.788.995 1.75 1.75 1.586 1.243 1.621 1.208.378-.378-1.307-1.666-2.128-2.195-2.128-1.372M869.158 1068c0 1.375.227 1.938.504 1.25.278-.687.278-1.812 0-2.5-.277-.687-.504-.125-.504 1.25m118.342 2c.995 1.1 2.035 2 2.31 2 .275 0-.315-.9-1.31-2-.995-1.1-2.035-2-2.31-2-.275 0 .315.9 1.31 2m4 5c.995 1.1 2.035 2 2.31 2 .275 0-.315-.9-1.31-2-.995-1.1-2.035-2-2.31-2-.275 0 .315.9 1.31 2m-123.248 2.5c.011 2.2.216 2.982.455 1.738.239-1.244.23-3.044-.02-4s-.446.062-.435 2.262M995.5 1080c.995 1.1 2.035 2 2.31 2 .275 0-.315-.9-1.31-2-.995-1.1-2.035-2-2.31-2-.275 0 .315.9 1.31 2m5.694 7.25c1.889 2.338 6.942 8.638 11.229 14 4.288 5.362 8.025 9.75 8.307 9.75.281 0-1.035-1.912-2.924-4.25a4880.988 4880.988 0 01-11.229-14c-4.288-5.362-8.025-9.75-8.307-9.75-.281 0 1.035 1.912 2.924 4.25M1461 1104.5c-2.429 2.475-4.191 4.5-3.916 4.5.275 0 2.487-2.025 4.916-4.5 2.429-2.475 4.191-4.5 3.916-4.5-.275 0-2.487 2.025-4.916 4.5m192.437 4.75l-2.937 3.25 3.25-2.937c3.029-2.738 3.71-3.563 2.937-3.563-.172 0-1.635 1.463-3.25 3.25m-626.873 10.362c3.2 4.338 6.91 9.389 8.244 11.224 1.9 2.613 2.888 3.19 4.559 2.662 4.615-1.457 5.531-.899 12.043 7.339 3.624 4.586 6.586 8.861 6.58 9.5-.012 1.5-6.621 9.197-15.49 18.041-4.224 4.213-5.414 5.756-3 3.891 4.549-3.513 12.529-11.784 17.291-17.922l3.223-4.152-7.539-10.034-7.539-10.034-3.634 1.258-3.635 1.258-7.372-9.786c-4.055-5.383-7.862-10.09-8.461-10.46-.599-.37 1.529 2.877 4.73 7.215m607.873 8.638l-2.937 3.25 3.25-2.937c3.029-2.738 3.71-3.563 2.937-3.563-.172 0-1.635 1.463-3.25 3.25m-558.437-.872c0 .207.787.995 1.75 1.75 1.586 1.243 1.621 1.208.378-.378-1.307-1.666-2.128-2.195-2.128-1.372m209.571 10.193c-.864.865-1.571 1.92-1.571 2.345 0 1.584 3.98 4.306 5.463 3.737 1.826-.701 2.038-4.752.337-6.453-1.581-1.581-2.343-1.515-4.229.371m-45.186 10.645c-1.587 1.218-3.11 2.479-3.385 2.801-.275.322-2.638 2.102-5.25 3.954-4.38 3.106-5.977 6.152-3.899 7.437.468.289 2.335-.57 4.149-1.908 4.815-3.553 6.826-1.216 3.423 3.977-1.769 2.7-1.583 6.649.344 7.284.742.244 2.108-1.484 3.297-4.172 1.75-3.958 2.436-4.589 4.983-4.589 7.896 0 9.238-9.987 2.116-15.75-2.064-1.67-2.425-1.609-5.778.966m.626 5.271c-1.62 1.952-.578 4.513 1.835 4.513 2.887 0 4.719-2.614 3.154-4.5-1.582-1.906-3.414-1.911-4.989-.013m8.989 13.097c-11.294 9.325-11.184 9.204-10.147 11.126 1.664 3.081 8.795 10.309 9.487 9.617 1.195-1.196.647-3.787-1.34-6.327-4.434-5.668-.722-9.371 4.159-4.148 1.618 1.731 3.37 3.148 3.892 3.148 1.618 0 1.048-3.052-1.144-6.131-1.681-2.36-1.854-3.228-.878-4.404 1.765-2.126 2.563-1.86 6.107 2.035 3.486 3.831 4.636 4.258 5.488 2.039.61-1.59-7.202-11.553-9.031-11.517-.601.011-3.568 2.064-6.593 4.562m-324 7.794c0 .207.788.995 1.75 1.75 1.586 1.243 1.621 1.208.378-.378-1.307-1.666-2.128-2.195-2.128-1.372m389.384 2.064c-1.069 2.785.093 5.053 2.748 5.362 2.065.241 2.708-.187 3.062-2.038.246-1.288.266-2.887.043-3.554-.566-1.698-5.183-1.517-5.853.23M1026 1183.154c-4.125 3.345-9.75 7.564-12.5 9.377-2.75 1.813-6.35 4.501-8 5.974l-3 2.678 3-2.131c1.65-1.172 4.8-3.344 7-4.828 10.027-6.764 23.213-17.368 21.372-17.188-.204.02-3.747 2.773-7.872 6.118m237.59-.979c-1.143 1.632-1.371 3.627-.914 8 .568 5.431.468 5.825-1.475 5.825-2.584 0-3.655-1.63-3.386-5.156.277-3.633-1.281-4.378-3.83-1.829-2.605 2.605-1.895 5.427 2.326 9.235 3.647 3.289 6.933 3.506 9.794.645 1.873-1.873 2.03-2.811 1.421-8.5-.74-6.907.062-7.893 4.033-4.962 1.556 1.148 1.693 1.684.691 2.7-1.373 1.392-1.71 4.867-.473 4.867 1.693 0 5.223-3.207 5.223-4.745 0-.897-1.013-3.119-2.25-4.936-1.861-2.734-2.888-3.307-5.943-3.312-2.664-.005-4.118.599-5.217 2.168M936 1188.378c0 .207.788.995 1.75 1.75 1.586 1.243 1.621 1.208.378-.378-1.307-1.666-2.128-2.195-2.128-1.372m4.606 5.774c1.042 1.459 2.094 2.459 2.338 2.222.245-.236-.607-1.43-1.894-2.652l-2.338-2.222 1.894 2.652m180.894 12.937c-10.45 8.264-21.8 17.138-25.223 19.719-5.804 4.376-7.003 6.125-4.714 6.874.515.168 8.137-5.349 16.937-12.26 8.8-6.912 20.168-15.78 25.262-19.708 8.513-6.563 10.194-8.615 7.676-9.37-.516-.154-9.488 6.481-19.938 14.745m150.5-6.927c-8.606 6.97-8.797 7.807-3.289 14.397 3.287 3.932 3.886 4.273 5.201 2.957 1.315-1.315 1.233-1.829-.713-4.46-4.687-6.34-.736-10.112 4.108-3.923 1.382 1.766 2.941 2.832 3.573 2.441 1.67-1.032 1.361-2.99-.88-5.574-2.586-2.982-2.532-4.696.175-5.556 1.687-.535 2.754.014 4.75 2.442 2.711 3.298 5.075 4.086 5.075 1.692 0-2.324-6.429-10.061-8.545-10.284-1.118-.118-5.164 2.393-9.455 5.868m-275.694 4.43l-2.806 2.591 3.25-2.159c2.977-1.979 3.947-3.024 2.806-3.024-.245 0-1.707 1.166-3.25 2.592m-55.267 4.031c-.04 2.162 13.351 20.377 14.98 20.377.761 0 7.977-3.872 12.981-6.965.825-.51 3.525-2.023 6-3.361 5.611-3.034 17-10.566 17-11.241 0-.499-.977.03-6.197 3.351-4.147 2.638-18.118 10.792-19.803 11.557-.825.375-2.85 1.543-4.5 2.597s-3.737 1.949-4.637 1.989c-1.877.084-12.271-12.345-14.378-17.19-1.105-2.542-1.415-2.781-1.446-1.114m349.211 1.321c-3.091 2.579-2.818 4.056.75 4.056 1.65 0 3 .354 3 .787 0 1.573-10.567 8.627-12.986 8.67-3.541.061-3.557 2.504-.041 6.353 3.211 3.515 4.996 3.473 5.075-.119.032-1.462 1.912-3.595 5.647-6.409 5.688-4.286 8.262-4.8 6.035-1.205-.998 1.609-.962 2.151.188 2.866 1.6.996 6.082-1.445 6.082-3.312 0-1.284-9.881-13.649-10.865-13.598-.349.019-1.648.878-2.885 1.911m137.49 18.79c-4.631 5.118 5.602 17.547 10.856 13.187 3.197-2.654.868-11.19-3.484-12.769a143.495 143.495 0 01-4.175-1.585c-.907-.37-2.249.12-3.197 1.167m-243.972 1.828c-4.223 2.766-5.626 6.466-3.768 9.938 2.201 4.113 9.14 11.972 11.288 12.785 4.154 1.571 11.593-3.176 11.679-7.452.106-5.315-7.3-15.833-11.148-15.833-.935 0-1.979-.45-2.319-1-.86-1.391-1.481-1.222-5.732 1.562M1071 1246.638c-3.025 2.471-9.398 7.539-14.162 11.261-6.158 4.812-8.424 7.153-7.84 8.097.887 1.436.495 1.699 19.92-13.382 9.226-7.163 11.207-9.541 8.52-10.229-.516-.132-3.413 1.782-6.438 4.253m322-.827c0 .58-.9 1.34-2 1.689-1.488.472-2 1.513-2 4.067 0 3.961-1.726 4.499-4.521 1.409-2.643-2.919-4.206-.849-1.842 2.438 1.481 2.058 2.581 2.538 5.363 2.338 2.819-.203 3.565-.708 3.832-2.595.187-1.321 1.602-3.067 3.243-4 1.601-.912 2.777-2.068 2.613-2.571-.477-1.466-4.688-3.958-4.688-2.775m6 8.28c0 .6-1.575 2.931-3.5 5.18-3.894 4.549-4.67 8.729-1.621 8.729 2.154 0 12.813-4.693 13.618-5.995 1.077-1.742-1.379-1.952-5.022-.43-2.652 1.108-4.049 1.251-4.807.493-.757-.757-.741-1.068.059-1.068 1.071 0 4.273-5.36 4.273-7.154 0-.465-.675-.846-1.5-.846s-1.5.491-1.5 1.091m11 13.89c0 1.279-.886 2.203-2.5 2.608-2.601.653-3.218 1.849-1.5 2.911 1.736 1.073 1.085 2.5-1.14 2.5-1.177 0-2.721-.787-3.432-1.75-.991-1.341-1.571-1.476-2.483-.577-.918.904-.6 1.763 1.387 3.75 3.922 3.922 9.168 2.983 9.168-1.642 0-1.745.646-2.355 2.75-2.597 3.319-.382 3.667-2.955.739-5.462-2.572-2.201-2.989-2.165-2.989.259m-389.87 18.694c-14.106 11.047-18.372 15.325-15.282 15.325.466 0 5.079-3.263 10.25-7.251 23.283-17.957 24.221-18.816 22.032-20.169-.478-.295-8.128 5.147-17 12.095m448.5-4.152c-.973 2.535.302 8.124 2.219 9.724.908.758 2.882 2.144 4.387 3.079 2.624 1.632 2.822 1.616 4.844-.406 1.698-1.698 1.978-2.818 1.443-5.764-.877-4.83-3.352-7.189-8.226-7.843-3.195-.429-4.132-.186-4.667 1.21M814.5 1294c3.266 3.3 6.162 6 6.437 6 .275 0-2.171-2.7-5.437-6-3.266-3.3-6.162-6-6.437-6-.275 0 2.171 2.7 5.437 6m616.283 9.282c-3.145 2.32-5.733 4.72-5.75 5.333-.018.613.9 2.301 2.04 3.75 2.965 3.771 7.58 3.58 11.737-.484 1.755-1.715 3.19-4.008 3.19-5.095 0-2.027-3.594-7.812-4.818-7.754-.375.018-3.255 1.93-6.399 4.25m-963.911-.532c-1.243 1.586-1.208 1.621.378.378 1.666-1.307 2.195-2.128 1.372-2.128-.207 0-.995.787-1.75 1.75m965.734 3.689c-2.907 2.376-3.113 5.561-.36 5.561 2.529 0 5.754-3.115 5.754-5.557 0-3.052-1.666-3.053-5.394-.004m-224.207-.103c-.605.693-1.414 2.933-1.798 4.977-1.28 6.822 4.829 13.107 10.465 10.766 7.648-3.177 8.788-10.029 2.537-15.254-2.456-2.054-9.566-2.364-11.204-.489m234.193 8.164c-.901 1.375-2.452 2.5-3.446 2.5-.994 0-2.411 1.127-3.148 2.504-1.204 2.25-1.103 2.756 1.005 5 1.29 1.373 3.115 2.496 4.056 2.496 2.466 0 5.352-4.956 5.097-8.75-.256-3.803 1.561-4.447 2.028-.719.405 3.247 2.215 3.682 2.646.637.383-2.703-2.353-6.168-4.87-6.168-.951 0-2.467 1.125-3.368 2.5m-3.587 5.477c-1.283.81-1.211 1.158.5 2.452 2.775 2.097 3.687 1.932 3.315-.601-.373-2.531-1.71-3.18-3.815-1.851m71.403 15.163c-3.318 5.333 5.269 15.733 11.133 13.483 2.517-.966 1.9-8.86-.898-11.488-2.921-2.745-9.028-3.935-10.235-1.995m-91.453 11.415c-1.078 1.298-.942 1.902.823 3.667s2.369 1.901 3.667.823c2.108-1.749 1.956-3.76-.379-5.01-2.492-1.333-2.583-1.322-4.111.52m-386.443 2.609c-2.946 1.781-5.441 5.08-5.479 7.245-.033 1.935 6.701 11.632 10.307 14.841 3.159 2.812 7.552 2.231 10.821-1.43 4.166-4.667 3.23-10.277-2.863-17.163-3.571-4.034-9.3-5.599-12.786-3.493m440.488 8.528c-5.405 4.249-5.89 5.731-2.916 8.897 2.815 2.997 6.766 3.104 10.356.28 4.232-3.329 4.965-6.402 2.366-9.918-2.767-3.742-4.246-3.63-9.806.741m1.686 2.898c-4.829 4.478-1.157 7.44 3.866 3.119 1.836-1.58 2.567-2.958 2.147-4.051-.902-2.351-2.787-2.059-6.013.932M1401 1363.5c0 .825-.702 1.5-1.559 1.5s-1.304.413-.991.919c.312.505-.786 1.216-2.441 1.579-3.368.74-3.428.85-1.963 3.588.987 1.844 1.327 1.719 5.996-2.218 3.876-3.269 4.707-4.466 3.831-5.521-1.481-1.785-2.873-1.711-2.873.153m86 3c0 .825.45 1.5 1 1.5s1 .9 1 2c0 1.273-.667 2-1.833 2-1.009 0-2.174.338-2.589.75-.416.412-1.912.75-3.325.75-1.413 0-2.76.561-2.993 1.246-.556 1.635 7.535 1.404 8.533-.244.389-.641 2.013-1.129 3.609-1.084 3.895.11 4.219-1.526 1.05-5.292-2.859-3.399-4.452-3.98-4.452-1.626m-163.41 16.401c-1.178 1.301-1.371 2.116-.611 2.586 1.357.839 4.021-1.221 4.021-3.109 0-1.928-1.384-1.716-3.41.523m127.615 4.352c-1.097 1.322.652 4.762 2.405 4.732 2.496-.043 3.585-1.753 2.458-3.858-1.278-2.388-3.304-2.752-4.863-.874m101.534 1.497c-3.487 3.883 2.366 13.25 8.279 13.25 3.713 0 4.334-1.17 3.515-6.628-.541-3.61-1.294-4.865-3.853-6.425-3.939-2.402-5.917-2.451-7.941-.197m-450.916 3.026c-3.249.416-4.981 2.345-6.387 7.115-.941 3.194-.784 3.983 1.369 6.859 2.069 2.765 3.05 3.245 6.564 3.217 5.197-.042 8.553-2.709 9.314-7.403.663-4.086-1.693-8.564-4.506-8.564-.977 0-2.204-.352-2.727-.783-.522-.431-2.155-.629-3.627-.441m-118.941 8.106c-3.351 3.351-3.882 4.494-3.882 8.35 0 7.565 8.08 16.768 14.721 16.768 3.773 0 12.279-5.32 12.279-7.679 0-2.061-16.01-21.321-17.723-21.321-.832 0-3.259 1.747-5.395 3.882m1.957 5.573c-.845 1.853-.81 3.202.144 5.505 1.613 3.893 7.768 9.349 9.708 8.605.81-.311 1.838-.565 2.284-.565.446 0 1.06-.648 1.363-1.439.672-1.75-8.988-14.561-10.979-14.561-.771 0-1.905 1.105-2.52 2.455M1432 1404.5c0 .825-.723 1.5-1.607 1.5-1.067 0-1.399.542-.989 1.611.501 1.304.14 1.491-1.893.981-2.621-.658-3.283.642-1.642 3.23.643 1.015 2.018.444 5.93-2.463 3.876-2.881 4.838-4.092 4.024-5.072-1.457-1.756-3.823-1.625-3.823.213m-78.779 1.542c-1.254.503-8.679 5.949-16.5 12.102a5921.14 5921.14 0 01-20.124 15.772 4544.76 4544.76 0 00-16.08 12.584c-5.598 4.4-15.943 12.5-22.99 18-7.047 5.5-17.586 13.76-23.42 18.355a3209.276 3209.276 0 01-14.027 11c-3.45 2.668-7.307 5.69-30.08 23.568-6.875 5.397-13.85 10.865-15.5 12.151-15.761 12.282-20.28 15.829-22 17.268-1.1.92-6.95 5.483-13 10.139s-11.525 8.928-12.166 9.492c-.641.565-5.028 4.385-9.75 8.489-7.857 6.829-8.584 7.772-8.584 11.122 0 2.86 1.039 4.972 4.75 9.652 2.612 3.295 6.1 7.727 7.75 9.849a934.154 934.154 0 007.029 8.887c2.216 2.765 7.166 9.078 11 14.027 3.834 4.949 7.73 9.899 8.657 11 1.641 1.947 5.266 6.582 22.773 29.114 4.652 5.988 8.721 11.112 9.041 11.387.32.275 4.385 5.45 9.033 11.5 4.649 6.05 9.205 11.9 10.125 13 .92 1.1 4.656 5.825 8.302 10.5a5613.153 5613.153 0 0018.005 23c3.674 4.675 7.726 9.85 9.003 11.5 1.277 1.65 6.082 7.773 10.677 13.607a7616.525 7616.525 0 0118.355 23.43c9.862 12.645 15.446 19.751 35.038 44.594a5422.038 5422.038 0 0119.462 24.852c13.932 17.922 16.059 20.446 17.865 21.197 2.266.942 6.898.98 7.302.06.183-.419 4.383-3.883 9.333-7.7a3889.9 3889.9 0 0040.924-32.052 3050.408 3050.408 0 0120.576-16.185c5.775-4.496 19.725-15.431 31-24.301a20014.34 20014.34 0 0132.882-25.815c21.743-17.011 23.68-18.531 34.64-27.187 5.919-4.675 15.369-12.1 20.999-16.5 5.631-4.4 14.904-11.65 20.608-16.111 16.108-12.598 15.557-10.378 5.736-23.086-4.592-5.942-8.901-11.478-9.576-12.303-.674-.825-4.203-5.325-7.842-10-3.639-4.675-7.369-9.4-8.289-10.5-.92-1.1-5.476-6.95-10.125-13-4.648-6.05-8.713-11.225-9.033-11.5-.32-.275-4.385-5.45-9.033-11.5-4.649-6.05-9.201-11.9-10.118-13-1.462-1.756-15.815-19.998-44.846-57-4.747-6.05-12.202-15.543-16.567-21.096a9213.205 9213.205 0 01-17.936-22.92 13446.06 13446.06 0 00-18.297-23.404c-20.239-25.809-28.223-35.972-35.703-45.45a5964.26 5964.26 0 01-16.385-20.884c-4.611-5.91-8.886-10.717-9.5-10.683-.613.035-2.141.476-3.394.979m165.27 4.635a1013.48 1013.48 0 00-5.883 4.94l-2.892 2.452 2.316 2.465c2.85 3.034 8.414 3.279 11.726.516 2.803-2.338 3.976-7.461 2.199-9.602-2.639-3.179-4.358-3.357-7.466-.771m-556.749 5.589c-5.943 5.288-6.222 7.226-.92 6.378 3.815-.61 3.834-.595 10.512 7.901 5.712 7.268 6.96 8.368 8.537 7.524 1.213-.649 2.069-2.612 2.495-5.721.932-6.801-1.255-8.446-3.785-2.848-.249.55-1.421-.125-2.604-1.5-7.398-8.595-7.321-8.411-5.864-13.976.822-3.136-3.685-1.929-8.371 2.242m556.347-1.339c-3.456 2.821-3.538 5.073-.183 5.073 2.001 0 6.094-3.187 6.094-4.745 0-.555-.566-1.48-1.258-2.054-.916-.761-2.18-.292-4.653 1.726m-234.889-.727c-.66.66-1.2 1.801-1.2 2.535 0 1.025.464 1.087 2 .265 1.1-.589 2-1.73 2-2.535 0-1.776-1.177-1.888-2.8-.265m239.596 10.55c-2.633 3.043-2.829 6.142-.524 8.289 4.067 3.789 8.728 1.439 8.728-4.399 0-3.238.282-3.64 2.559-3.64 1.451 0 2.292-.433 1.941-1-1.104-1.786-11.016-1.201-12.704.75m-39.535 2.734c-2.557 2.906 1.766 6.917 4.504 4.179 1.182-1.181 1.195-1.754.082-3.536-1.531-2.453-2.833-2.635-4.586-.643m40.861.42c-1.788 1.132-.559 3.096 1.937 3.096 1.274 0 1.941-.687 1.941-2 0-2.109-1.576-2.555-3.878-1.096M933 1439.543c0 .849 1.8 3.927 4 6.841 4.573 6.057 4.744 6.616 2.019 6.616-1.212 0-3.428-1.939-5.713-5-3.513-4.705-7.306-6.616-7.306-3.681 0 .726 1.807 3.742 4.016 6.702 2.209 2.961 3.868 5.827 3.687 6.369-.801 2.405-2.702 1.293-6.589-3.855-4.353-5.765-7.114-7.083-7.114-3.394 0 2.713 6.698 11.629 10 13.311 3.136 1.598 4.876 1.006 6.04-2.057.502-1.321 1.73-2.395 2.739-2.395 1.006 0 3.335-1.555 5.177-3.455 3.008-3.103 3.206-3.646 1.946-5.346-7.839-10.581-9.298-12.199-10.996-12.199-1.051 0-1.906.692-1.906 1.543m661.571 2.028c-1.932 1.933-1.945 2.599-.131 6.939 1.326 3.173 6.581 7.477 9.141 7.486.595.002 1.68-1.115 2.412-2.483 1.058-1.977 1.091-3.29.16-6.395-.956-3.191-1.906-4.202-5.182-5.513-4.875-1.95-4.485-1.948-6.4-.034m98.624 2.929c.02 1.65.244 2.204.498 1.231.254-.973.237-2.323-.037-3-.274-.677-.481.119-.461 1.769m-229.848.037c-1.081.819-1.329 1.413-.597 1.431.688.018 1.25.512 1.25 1.099 0 .638-.867.793-2.151.385-1.738-.551-2.027-.359-1.507.998.51 1.328.228 1.548-1.348 1.048-1.424-.452-1.994-.176-1.994.966 0 2.357 2.7 2.979 4.615 1.064.916-.916 2.727-2.362 4.025-3.212 1.298-.85 2.36-2.121 2.36-2.824 0-1.976-2.601-2.51-4.653-.955m-221.173 2.468c-3.375 2.813-1.718 4.457 1.84 1.827 1.599-1.183 2.674-2.528 2.388-2.991-.764-1.237-1.635-.997-4.228 1.164M910.5 1456.53c-2.2 1.921-4.746 3.729-5.658 4.019-1.856.59-3.145 3.151-2.286 4.541.755 1.222 4.172 1.16 4.944-.09 1.244-2.013 3.156-.889 6.806 4 2.053 2.75 4.512 4.988 5.463 4.973.952-.015 3.306-1.337 5.231-2.938 2.827-2.351 3.257-3.157 2.236-4.187-1.005-1.014-1.921-1.028-4.466-.067-2.974 1.122-3.364 1.013-5.451-1.536-2.695-3.293-2.856-4.994-.698-7.379 1.751-1.935 1.241-4.878-.84-4.847-.704.011-3.081 1.591-5.281 3.511m-505.305 1.97c.02 1.65.244 2.204.498 1.231.254-.973.237-2.323-.037-3-.274-.677-.481.119-.461 1.769m1336.884-.917c.048 1.165.285 1.402.604.605.289-.722.253-1.585-.079-1.917-.332-.332-.568.258-.525 1.312m-184.579 7.528c-2.75 2.238-5.126 4.604-5.281 5.258-.154.653.651 2.188 1.789 3.41 3.107 3.334 8.082 2.977 11.915-.856 2.803-2.803 4.18-6.923 2.314-6.923-.419 0-1.207-1.01-1.75-2.244-1.499-3.407-3.507-3.105-8.987 1.355m2.25 2.006c-3.149 2.347-3.713 5.883-.939 5.883 2.43 0 6.376-3.791 5.995-5.758-.459-2.365-1.999-2.403-5.056-.125M405.195 1468.5c.02 1.65.244 2.204.498 1.231.254-.973.237-2.323-.037-3-.274-.677-.481.119-.461 1.769m1109.87-.078c-.91 1.097-.886 1.891.106 3.48 1.75 2.802 3.894 3.461 5.625 1.73 1.255-1.255 1.2-1.772-.427-4.005-2.127-2.918-3.604-3.254-5.304-1.205m-620.683 1.025c-.305.795 1.078 3.586 3.075 6.2 3.849 5.041 4.209 7.949 1.206 9.751-1.567.94-2.55.312-6.694-4.276-3.259-3.609-5.37-5.182-6.413-4.782-2.357.904-1.934 2.245 2.601 8.252 4.371 5.79 6.473 7.408 9.622 7.408 2.286 0 5.221-2.996 5.221-5.329 0-.972.791-1.671 1.889-1.671 2.589 0 6.601-3.399 5.711-4.838-.395-.639-1.479-1.164-2.409-1.166-.93-.002-3.601-2.477-5.936-5.5-4.226-5.472-6.816-6.804-7.873-4.049m676.339 5.558c-2.17 1.707-2.497 2.598-2.024 5.516.489 3.012.293 3.479-1.459 3.479-1.113 0-2.283-.675-2.6-1.5-.7-1.826-3.638-2.005-3.638-.222 0 1.933 3.728 4.722 6.311 4.722 3.286 0 4.689-1.855 4.689-6.2 0-3.626 1.176-4.942 2.5-2.8.34.55 1.041 1 1.559 1 1.585 0 1.047-2.594-.905-4.36-1.73-1.566-2.007-1.543-4.433.365m-648.389 2.573c-.333.867.049 2.231.848 3.031 1.272 1.271 1.677 1.207 3.235-.515.979-1.082 1.485-2.446 1.124-3.031-.999-1.617-4.523-1.269-5.207.515m278.418 1.814c-1.807 1.372-2.38 3.608-.924 3.608.454 0 1.882-1.125 3.174-2.5 2.555-2.72.928-3.521-2.25-1.108m-329 7.343c-5.843 4.66-7.504 8.265-3.809 8.265 1.068 0 2.219-.45 2.559-1 1.376-2.227 4.274-.731 7.843 4.05 4.112 5.508 5.577 5.746 10.267 1.667 4.279-3.72 1.891-7.402-2.805-4.325-2.25 1.474-2.478 1.39-5.081-1.871-3.254-4.078-3.25-4.037-.738-7.231 1.093-1.389 1.741-2.922 1.441-3.408-1.109-1.795-4.076-.613-9.677 3.853m625.157-3.235c-.075.55-.068 1.724.017 2.609.178 1.864-4.477 5.249-6.235 4.533-.654-.266-.402-.52.561-.563.963-.043 1.75-.529 1.75-1.079 0-1.382-1.275-1.25-3.478.36-1.802 1.318-1.794 1.432.252 3.628 1.933 2.075 2.249 2.132 3.706.675.876-.876 2.926-2.381 4.556-3.344 1.63-.962 2.954-1.991 2.942-2.285-.048-1.14-3.941-5.477-4.071-4.534m139.248 10.813c-1.392 1.677-.371 8.626 1.601 10.899.817.942 3.081 2.239 5.031 2.883 3.12 1.029 3.713.944 4.935-.712 1.504-2.039.943-7.862-.982-10.191-1.035-1.252-7.164-4.192-8.74-4.192-.415 0-1.246.591-1.845 1.313m-749.676 11.079c-1.617 1.182-1.703 1.633-.569 3 1.817 2.189 3.824 2.022 4.587-.383 1.173-3.696-.792-4.976-4.018-2.617m660.672 3.926c-1.026 1.236-.802 1.846 2.374 6.456.104.15.928-.011 1.832-.357 1.968-.756 2.079-3.259.251-5.667-1.585-2.088-2.971-2.222-4.457-.432M1159.5 1512c-1.373 1.517-1.471 1.992-.405 1.968 1.546-.035 4.905-2.314 4.905-3.328 0-1.378-2.784-.536-4.5 1.36m439.016 6.003c-2.741 2.144-5.118 4.303-5.282 4.796-.694 2.082 3.408 5.389 6.8 5.483 7.61.212 12.427-7.033 7.889-11.864-1.249-1.33-2.756-2.395-3.347-2.366-.592.029-3.319 1.807-6.06 3.951m2.234 2.112c-5.185 3.869-2.67 7.459 2.665 3.803 2.266-1.553 3.156-2.841 2.829-4.092-.613-2.343-2.068-2.267-5.494.289M1527.5 1525c-.34.55.084 1 .941 1 .892 0 1.559.855 1.559 2 0 1.333-.667 2-2 2-1.1 0-2 .45-2 1s-.675 1-1.5 1-1.5-.702-1.5-1.559-.468-1.27-1.041-.916c-1.095.677-.393 4.126 1.261 6.196.731.914 1.893.351 4.628-2.242 2.009-1.904 3.99-3.466 4.402-3.47 1.473-.017.715-2.595-1.261-4.287-2.338-2.002-2.657-2.068-3.489-.722m79.542 3.845c-4.38 4.167-5.179 7.571-2.292 9.763 2.6 1.974 4.855 1.682 9.196-1.191 5.674-3.755 6.024-6.304 1.489-10.839-2.378-2.378-3.959-1.95-8.393 2.267m3.958.449c0 1.791 2.787 4.252 3.739 3.301.834-.835-.916-3.821-2.56-4.369-.649-.216-1.179.265-1.179 1.068m-5 5.206c0 .933.944 1.5 2.5 1.5s2.5-.567 2.5-1.5-.944-1.5-2.5-1.5-2.5.567-2.5 1.5m-487.02 9.024c-.696.838-1.014 1.775-.708 2.081.765.765 4.728-1.448 4.728-2.64 0-1.5-2.613-1.136-4.02.559m558.687 4.143c-.367.366-.667 2.159-.667 3.984 0 4.708 4.414 9.447 9.013 9.676 3.273.162 3.507-.034 3.811-3.215.487-5.104-.436-7.452-3.687-9.372-2.977-1.758-7.245-2.299-8.47-1.073m-97.54 3.029l-2.285 1.851 2.042 1.848c3.631 3.286 6.741.21 3.823-3.781-1.234-1.688-1.399-1.684-3.58.082m-18.437 15.947c-.379.38-.69 1.515-.69 2.524 0 1.166-.727 1.833-2 1.833-1.1 0-2 .502-2 1.117 0 .624-.882.886-2 .593-2.287-.598-2.399-.324-.965 2.356 1.404 2.623 1.805 2.501 6.908-2.101 3.953-3.565 4.278-4.173 2.941-5.51-.827-.826-1.814-1.192-2.194-.812m-576.797 6.242c-1.988 1.61-2.134 2.12-.999 3.488 1.547 1.863.806 4.627-1.24 4.627-.775 0-1.969-.675-2.654-1.5-1.701-2.05-3-1.883-3 .385 0 2.832 4.349 5.313 7.327 4.181 2.393-.91 4.305-5.235 3.145-7.112-1.229-1.988.707-3.102 2.528-1.454 2.492 2.256 3.762 0 1.443-2.563-2.196-2.426-3.603-2.437-6.55-.052m663.905-1.349c-.318.317-1.64.724-2.938.903-4.324.597-8.86 2.739-8.86 4.184 0 .785 1.337 1.694 2.971 2.021 2.586.517 2.836.849 1.923 2.553-1.145 2.14-.556 4.803 1.062 4.803.56 0 2.22-1.902 3.688-4.228 1.468-2.325 3.296-4.855 4.062-5.621.767-.767 1.259-2.089 1.094-2.94-.322-1.656-2.054-2.623-3.002-1.675M1644 1575.5c0 .825.45 1.5 1 1.5s1-.675 1-1.5-.45-1.5-1-1.5-1 .675-1 1.5m-649.463 5.15c-4.163 4.631-7.537 9.787-7.537 11.519 0 2.59 2.594 3.38 4.58 1.394.897-.897 2.42-1.38 3.384-1.074.965.306 2.322-.129 3.017-.966.695-.838 1.884-1.523 2.641-1.523.758 0 1.378-.675 1.378-1.5 0-1.901-2.909-1.884-5.441.032-4.268 3.228-4.806.792-.944-4.272 1.77-2.321 2.288-3.757 1.6-4.445-.687-.687-1.553-.417-2.678.835m655.845 2.148c-3.955 3.613-5.075 7.778-2.776 10.32.937 1.035 2.6 1.882 3.696 1.882 2.357 0 10.698-6.566 10.698-8.421 0-1.993-4.69-6.579-6.729-6.579-1.004 0-3.204 1.259-4.889 2.798m1.914 2.958c-1.847 1.916-2.966 3.94-2.643 4.783.818 2.13 2.081 1.796 3.939-1.039.901-1.375 2.261-2.5 3.023-2.5 1.72 0 1.771-1.163.135-3.092-1.075-1.268-1.698-1.01-4.454 1.848m-40.096 5.444c-1.621 1.621-1.51 3.298.319 4.816 1.243 1.031 1.88.933 3.508-.54 1.862-1.685 1.883-1.918.326-3.638-1.954-2.159-2.542-2.249-4.153-.638m-657 8c-3.758 3.758 2.595 13.8 8.73 13.8 5.451 0 4.7-10.039-.99-13.25-3.631-2.048-6.069-2.221-7.74-.55m764.544 1.883c-3.113 1.814-.174 10.126 4.421 12.502 6.049 3.128 8.597.886 7.354-6.471-.519-3.071-1.31-4.121-4.114-5.458-3.989-1.902-5.22-1.994-7.661-.573M1090 1605c-1.925 1.62-4.062 2.958-4.75 2.973-1.722.037-1.566 1.854.321 3.741 1.429 1.429 1.721 1.422 3.215-.071 1.053-1.053 1.207-1.643.428-1.643-.668 0-1.214-.499-1.214-1.108 0-.683.96-.868 2.5-.481 2.554.641 3.51-.765 1.25-1.837-.687-.327.216-.375 2.008-.107l3.257.486-1.622-2.476c-.893-1.363-1.684-2.465-1.758-2.45-.074.015-1.71 1.353-3.635 2.973m503.643 3.511c.432 1.126.124 1.337-1.205.827-1.365-.524-1.64-.306-1.166.927.461 1.203-.067 1.692-2.077 1.924-1.914.221-2.788.963-3.015 2.561-.434 3.061 1.187 2.829 6.407-.92 4.625-3.321 5.482-5.206 2.831-6.223-2.26-.867-2.423-.784-1.775.904m557.81 5.739l-3.953 4.25 4.25-3.953c3.952-3.676 4.71-4.547 3.953-4.547-.163 0-2.076 1.912-4.25 4.25m-474.203 2.812c-5.092 3.908-6.756 6.938-3.809 6.938.793 0 1.724-.457 2.069-1.016 1.26-2.039 2.535.259 1.931 3.479-.809 4.314 1.245 5.737 2.613 1.811.69-1.979 2.008-3.173 4.225-3.825 2.47-.728 3.294-1.585 3.535-3.676.316-2.744-2.45-7.697-4.314-7.725-.55-.009-3.362 1.798-6.25 4.014m3.75 2.438c0 .833.889 1.5 2 1.5s2-.667 2-1.5-.889-1.5-2-1.5-2 .667-2 1.5m-615.943 4.444c-1.168.739-1.22 1.402-.272 3.484 1.339 2.938 1.96 3.08 4.634 1.056 1.86-1.407 1.863-1.515.095-3.468-2.053-2.269-2.424-2.358-4.457-1.072m-245.62 4.306l-2.937 3.25 3.25-2.937c1.788-1.615 3.25-3.078 3.25-3.25 0-.773-.825-.092-3.563 2.937m869.654-1.341c-1.5 1.5-1.847 2.818-1.427 5.41.694 4.276-1.205 5.783-2.82 2.237-1.184-2.597-3.236-3.348-4.327-1.584-.947 1.533 2.483 5.99 5.119 6.651 3.555.893 5.364-1.214 5.364-6.245 0-2.408.321-4.378.712-4.378.392 0 1.726 1.237 2.964 2.75l2.252 2.75.036-2.595c.033-2.378-1.56-4.521-4.678-6.289-.667-.379-2.105.203-3.195 1.293m-663.351 3.631c-1.901 1.763-2.735 3.524-2.725 5.75.017 3.428.512 4.449 3.168 6.527 1.43 1.119 1.994 1.006 3.75-.75 1.137-1.137 2.067-2.49 2.067-3.008 0-1.61-2.183-2.381-3-1.059-.898 1.454-3 .484-3-1.385 0-2.028 4.65-5.829 6.661-5.445 1.011.193 1.983 1.358 2.159 2.59.372 2.61 2.952 2.998 3.879.582.86-2.24-4.001-6.342-7.515-6.342-1.511 0-3.914 1.121-5.444 2.54m618.51 1.127c-1.738.695-1.563 3.828.3 5.375 1.281 1.063 1.842.994 3.233-.397 2.519-2.518-.18-6.32-3.533-4.978m-834.326 6.083l-2.424 2.75 2.75-2.424c2.57-2.266 3.209-3.076 2.424-3.076-.179 0-1.416 1.237-2.75 2.75m888.519-.122c.809 3.225-2.105 6.372-5.901 6.372-3.133 0-3.451 2.867-.605 5.443 2.08 1.882 4.063 1.37 4.063-1.05 0-.819 1.237-2.571 2.75-3.894 2.455-2.147 2.879-2.236 3.952-.827 1.173 1.541 4.298 1.218 4.298-.445 0-1.366-6.666-8.227-7.993-8.227-.822 0-1.007.863-.564 2.628M1123 1644.856c-.825 1.006-2.71 2.609-4.19 3.562-3.005 1.936-2.771 4.582.404 4.582 1.39 0 1.82-.47 1.409-1.54-.409-1.066-.064-1.451 1.121-1.25.969.164 1.732-.361 1.76-1.21.031-.944.874-1.412 2.273-1.262 2.425.26 2.962-1.599 1.023-3.538-1.586-1.586-2.024-1.51-3.8.656m501.675 2.802c-.362.362-.103 1.327.576 2.144 1.051 1.266.887 1.376-1.108.744-2.047-.65-2.257-.482-1.678 1.343.597 1.881.361 2.026-2.402 1.474-3.334-.667-3.878.359-1.884 3.552 1.108 1.775 1.463 1.643 5.932-2.206 3.891-3.352 4.578-4.422 3.786-5.902-1.007-1.882-2.099-2.271-3.222-1.149m-626.925 4.422c-4.036 2.351-.869 10.256 5.41 13.503 3.236 1.673 5.242.875 6.318-2.512.899-2.833-2.218-8.885-5.432-10.547-3.429-1.774-3.95-1.81-6.296-.444m99.94 12.404c-2.171 1.588-2.134 2.804.148 4.869 1.715 1.553 1.942 1.546 3.419-.095 1.446-1.606 1.433-1.942-.147-3.884-1.439-1.768-2.013-1.918-3.42-.89m-248.766 3.266l-2.424 2.75 2.75-2.424c2.57-2.266 3.209-3.076 2.424-3.076-.179 0-1.416 1.237-2.75 2.75m214.884 11.068c-5.247 4.117-5.83 6.152-2.619 9.143 3.05 2.842 6.874 2.554 10.631-.8 3.531-3.152 3.99-5.996 1.565-9.696-2.155-3.289-3.992-3.03-9.577 1.353m1.705 2.68c-2.778 2.283-2.872 2.572-1.336 4.108 1.536 1.536 1.873 1.495 4.791-.583 3.207-2.284 3.744-5.301 1.021-5.74-.819-.132-2.833.865-4.476 2.215M1153 1687c-1.925 1.647-3.838 2.996-4.25 2.998-1.582.005-.652 2.582 1.392 3.859 1.962 1.225 2.096 1.161 1.593-.761-.302-1.154-.177-1.869.278-1.588.454.281 1.505-.169 2.335-.999.83-.83 2.216-1.509 3.081-1.509 1.009 0 1.571-.894 1.571-2.5 0-3.297-1.732-3.153-6 .5m824.25-2.311c.963.252 2.537.252 3.5 0 .963-.251.175-.457-1.75-.457s-2.713.206-1.75.457m7.019.004c.973.254 2.323.237 3-.037.677-.274-.119-.481-1.769-.461-1.65.02-2.204.244-1.231.498m-913.774 6.314c-.26.422.236 1.355 1.102 2.074 1.047.869 1.39 2.234 1.022 4.074-.674 3.369.388 4.173 3.797 2.877 1.837-.698 2.584-1.712 2.584-3.507 0-1.858.528-2.525 2-2.525 1.1 0 2-.45 2-1s.112-1.338.25-1.75c.331-.993-12.144-1.23-12.755-.243m-427.231 12.711c1.52.229 3.77.223 5-.014 1.23-.237-.014-.425-2.764-.418-2.75.008-3.756.202-2.236.432m396.06 1.767c-1.795 1.258-1.998 2.028-1.321 5.029 1.005 4.456 2.64 6.437 6.715 8.141 4.133 1.728 3.965 1.758 5.812-1.06 1.394-2.128 1.41-2.804.136-5.852-1.321-3.161-6.261-7.743-8.348-7.743-.48 0-1.827.668-2.994 1.485m89.323.353c-1.555 1.717-1.542 1.947.2 3.524 1.85 1.674 5.153 1.331 5.153-.535 0-1.503-1.983-4.827-2.88-4.827-.446 0-1.558.827-2.473 1.838m540.078 13.914c-.872.963-2.065 3.011-2.65 4.55-1.492 3.924.417 7.272 14.082 24.698 6.254 7.975 14.515 18.516 18.357 23.424a7080.29 7080.29 0 0017.179 21.818c5.606 7.091 9.962 13.492 9.681 14.225-.28.732-6.169 5.764-13.085 11.182-6.916 5.418-13.094 10.354-13.728 10.969-4.101 3.973-3.906 4.17-33.655-33.847-15.611-19.949-29.674-37.508-31.251-39.021-5.661-5.43-13.999-2.707-15.227 4.974-.596 3.727-.244 4.461 6.165 12.864 3.738 4.902 8.622 11.186 10.852 13.966 2.23 2.78 8.555 10.831 14.055 17.893 5.5 7.061 10.462 13.337 11.027 13.946 3.849 4.151 17.473 22.688 17.472 23.772-.001.734-5.455 5.61-12.119 10.835-6.665 5.225-13.302 10.512-14.749 11.749-1.447 1.237-3.309 2.249-4.138 2.25-.828 0-5.416-5.061-10.194-11.249-27.328-35.391-26.746-34.75-31.535-34.75-1.943 0-4.836.966-6.61 2.206-4.705 3.291-47.365 36.704-55.879 43.766-2.098 1.74-2.389 8.41-.51 11.674.679 1.18 5.601 7.705 10.938 14.5 5.336 6.795 12.623 16.095 16.194 20.667 3.57 4.573 6.266 8.903 5.989 9.622-.276.72-2.486 2.734-4.911 4.476-2.425 1.741-4.986 3.718-5.692 4.394-4.547 4.351-18.958 14.695-20.473 14.695-1.006 0-2.321-.788-2.922-1.75-2.166-3.468-28.7-36.835-32.206-40.5-4.233-4.424-7.782-4.862-12.528-1.546-3.321 2.321-22.969 17.662-43.154 33.695-13.983 11.106-15.422 12.634-15.467 16.429-.034 2.895.937 4.249 24.467 34.118 5.5 6.982 10.418 13.29 10.928 14.018 1.05 1.498.361 2.305-6.428 7.525-2.475 1.902-4.725 3.715-5 4.028-1.168 1.328-19.312 14.983-19.908 14.983-.36 0-3.335-3.487-6.61-7.75-3.275-4.263-6.71-8.65-7.634-9.75-1.458-1.737-4.795-5.987-17.642-22.472a983.755 983.755 0 00-6.735-8.5c-2.216-2.765-7.131-9.078-10.923-14.028-10.983-14.337-12.268-15.5-17.133-15.5-6.307 0-8.915 2.573-8.915 8.798 0 5.433-.587 4.538 21.124 32.202l16.558 21.102c32.558 41.496 31.836 40.778 39.021 38.843 2.147-.578 4.892-1.89 6.1-2.915 1.981-1.681 13.689-10.908 22.653-17.853 1.9-1.472 7.75-6.112 13-10.31 16.2-12.956 16.198-13.067-.541-34.367-20.177-25.675-22.415-28.71-22.413-30.399.002-1.498 5.059-5.695 28.854-23.949l9.579-7.349 2.532 2.89c3.874 4.42 12.61 15.459 28.083 35.487 6.433 8.327 8.068 9.314 13.825 8.341 3.775-.638 6.345-2.461 31.625-22.441 5.5-4.347 12.352-9.746 15.227-11.997 5.447-4.266 8.273-8.431 8.273-12.194 0-1.216-2.588-5.572-5.75-9.681-3.162-4.108-6.65-8.668-7.75-10.132-1.1-1.465-5.377-6.919-9.504-12.12-10.156-12.797-12.996-16.664-12.996-17.693 0-.479 3.228-3.322 7.172-6.317 3.945-2.995 7.657-5.908 8.25-6.473.593-.564 5.939-4.775 11.881-9.356 10.673-8.23 10.829-8.308 12.879-6.474 1.141 1.021 9.039 10.747 17.551 21.613 8.512 10.866 16.801 20.7 18.42 21.853 4.04 2.877 8.83 1.857 15.847-3.375 3.025-2.255 5.725-4.374 6-4.708.275-.334 5.45-4.396 11.5-9.026s11.225-8.68 11.5-9c.275-.32 5.45-4.37 11.5-9s11.225-8.68 11.5-9c.275-.32 5.399-4.389 11.387-9.041 30.17-23.441 28.68-22.017 29.929-28.618.476-2.517-.036-4.043-2.519-7.5-1.715-2.388-3.401-4.566-3.748-4.841-.347-.275-4.419-5.45-9.049-11.5s-8.68-11.225-9-11.5c-.32-.275-4.37-5.45-9-11.5s-8.68-11.225-9-11.5c-.32-.275-4.379-5.45-9.02-11.5s-9.236-11.873-10.21-12.94c-.975-1.067-2.776-3.404-4.002-5.194-1.226-1.789-3.138-3.498-4.249-3.796-4.146-1.114-9.219-.559-10.794 1.182m-481.363 5.748c-.317.825-.932 1.5-1.366 1.5-.435 0-2.163 1.205-3.842 2.677-2.792 2.451-2.907 2.787-1.352 3.969 2.234 1.698 3.198 1.675 3.198-.078 0-2.287 5.442-5.726 6.843-4.325 1.51 1.51 1.586-.572.122-3.309-1.238-2.312-2.81-2.501-3.603-.434m-79.362 7.055c-1.925 1.897-4.287 3.704-5.25 4.015-.963.31-1.75.924-1.75 1.363 0 1.813 4.129 5.858 6.428 6.298 3.489.667 8.278-1.935 10.031-5.45 1.404-2.814 1.341-3.176-1.104-6.382-1.426-1.869-3.101-3.375-3.724-3.346-.622.029-2.706 1.605-4.631 3.502m.75 3.56c-4.865 3.63-2.923 7.282 2.248 4.227 1.942-1.147 3.002-2.58 3.002-4.058 0-2.808-1.642-2.86-5.25-.169m13.25 6.814c0 .51-.787 1.718-1.75 2.684-.963.966-1.75 2.678-1.75 3.803 0 2.544-3.455 3.415-4.702 1.187-1.238-2.212-2.798-2.01-2.798.362 0 4.545 8.971 5.473 10.001 1.035.374-1.608 1.391-2.617 2.851-2.828 3.052-.44 3.786-2.809 1.614-5.209-1.892-2.092-3.466-2.561-3.466-1.034m38.304 3.956c-.984 1.575-.782 2.257 1.23 4.147 1.995 1.875 2.669 2.044 3.937.992 1.96-1.627 1.925-2.538-.193-5.013-2.148-2.509-3.465-2.542-4.974-.126m-80.109 15.763c.261 3.979.835 5.075 3.992 7.624 2.883 2.326 4.274 2.829 6.375 2.302 2.54-.638 2.658-.929 2.161-5.34-.633-5.618-4.353-9.221-9.528-9.229l-3.305-.005.305 4.648m136.691 5.336c-1.863 1.641-3.724 2.991-4.136 3-2.536.054 1.688 6.016 4.261 6.016 1.487 0 1.191-1.132-.646-2.475-1.451-1.061-1.261-1.463 1.683-3.559 2.231-1.589 3.45-1.971 3.719-1.165.22.659 1.049 1.199 1.842 1.199 1.232 0 1.216-.437-.109-3-.853-1.65-1.929-3-2.39-3-.462 0-2.362 1.343-4.224 2.984M1219 1773c0 .55.45 1 1 1s1-.45 1-1-.45-1-1-1-1 .45-1 1m-70 12.622c-2.475 1.936-4.882 3.893-5.349 4.348-1.564 1.525.468 5.073 3.675 6.417 2.644 1.108 3.618 1.106 5.836-.009 2.939-1.478 6.838-5.963 6.838-7.867 0-1.414-4.521-6.536-5.702-6.46-.439.029-2.823 1.636-5.298 3.571m1.044 3.201c-3.899 3.254-3.464 5.75.815 4.677 3.753-.941 6.144-3.744 4.975-5.833-1.258-2.248-1.857-2.128-5.79 1.156m42.349-1.404c-.3.781.21 2.572 1.133 3.981 1.365 2.083 2.033 2.371 3.576 1.545 2.302-1.232 2.348-1.858.341-4.722-1.766-2.522-4.24-2.915-5.05-.804m-29.393 8.022c0 .793.45 1.719 1 2.059.55.34 1 1.266 1 2.059 0 1.107-1.507 1.441-6.5 1.441-5.536 0-6.495.259-6.467 1.75.051 2.656 3.713 6.561 5.508 5.873 1.198-.46 1.31-1.032.499-2.547-1.358-2.538.051-3.434 4.025-2.562 5.36 1.178 8.163-4.188 4.106-7.859-2.248-2.035-3.171-2.097-3.171-.214m87.174 14.614c-1.279 1.62-2.967 2.945-3.75 2.945-1.736 0-1.863 2.161-.224 3.8 1.866 1.866 3.003 1.416 2.269-.899-.584-1.838-.376-2.006 1.674-1.355 2.168.687 2.231.608.849-1.075-1.372-1.671-1.314-1.772.712-1.25 1.211.312 2.986-.005 3.943-.705 1.605-1.173 1.614-1.398.118-2.894-2.184-2.184-2.873-2.008-5.591 1.433m-127.924 1.607c-3.557 1.436.047 10.016 5.635 13.414 3.093 1.881 3.159 1.88 5.124-.085 2.247-2.247 2.435-3.694.977-7.527-1.906-5.014-7.201-7.632-11.736-5.802m103.476 17.089c-1.937 2.139-.595 5.249 2.265 5.249 2.687 0 3.454-1.8 1.958-4.595-1.535-2.868-2.136-2.961-4.223-.654m-35.226 9.313c-1.65 1.622-3.787 3.201-4.75 3.51-2.45.785-2.179 3.088.705 5.971 3.432 3.433 7.403 3.2 11.355-.664 2.986-2.919 4.407-7.881 2.257-7.881-.513 0-1.218-.9-1.567-2-.916-2.885-4.464-2.413-8 1.064m1.252 2.777c-3.221 1.944-3.855 6.159-.926 6.159 2.493 0 6.575-4.513 5.832-6.449-.723-1.883-1.368-1.845-4.906.29m10.903 8.948c.676 2.585-3.012 5.567-6.144 4.968-3.553-.679-3.991.674-1.369 4.222 2.298 3.108 5.533 4.222 4.508 1.552-.454-1.183 4.339-5.965 9.243-9.222 1.058-.703-2.423-3.309-4.422-3.309-1.702 0-2.165.456-1.816 1.789m80.323.044c-.837.917-2.637 2.413-4 3.324-2.048 1.369-2.286 1.976-1.369 3.5 1.027 1.707 3.205 1.784 2.641.093-.138-.412.088-.697.5-.632 2.004.317 2.372-.268 1.122-1.784-1.234-1.498-1.106-1.6 1.264-1.01 2.991.745 5.456-1.339 4.507-3.811-.744-1.939-2.726-1.803-4.665.32m-119.311 14.834c-.367.366-.667 2.134-.667 3.928 0 4.225 5.544 10.405 9.333 10.405 5.722 0 5.512-8.838-.309-12.983-2.779-1.979-7.04-2.667-8.357-1.35m94.083 4.751c-2.123 1.58-2.178 2.297-.321 4.153 1.836 1.837 3.014 1.805 4.616-.126 1.074-1.294.969-1.87-.627-3.442-1.62-1.594-2.19-1.685-3.668-.585m-23.641 23.105c-2.415 1.912-4.729 3.477-5.143 3.477-.413 0-1.04.75-1.392 1.667-.753 1.964.863 4.054 1.872 2.42.665-1.075 4.554-1.565 4.554-.573 0 .282-.521 1.347-1.158 2.367-1.246 1.995-.559 5.119 1.127 5.119.567 0 1.031-1.112 1.031-2.471 0-1.92.686-2.65 3.074-3.268 1.707-.443 3.811-2.012 4.731-3.528 1.616-2.663 1.583-2.807-1.324-5.71l-2.981-2.978-4.391 3.478m78.47-.063c-3.328 2.905-3.727 3.657-2.637 4.97 1.553 1.872 3.058 1.155 3.058-1.458 0-1.281.49-1.721 1.492-1.337.857.329 1.758-.122 2.118-1.061.406-1.059 1.289-1.423 2.508-1.036 2.128.675 2.482-.538.682-2.338-1.821-1.821-2.95-1.467-7.221 2.26m-75.579 3.123c0 1.766 2.153 1.459 2.771-.395.218-.654-.317-1.188-1.188-1.188-.87 0-1.583.713-1.583 1.583m7.805 8.087c-.876 1.792-2.594 3.029-5.225 3.76-4.891 1.359-5.957 3.57-1.722 3.57 3.051 0 5.5 2.047 3.319 2.774-1.93.644-1.333 3.226.745 3.226 1.301 0 2.287-1.103 3.049-3.412 1.141-3.459 2.645-4.588 6.111-4.588 1.072 0 1.918-.689 1.918-1.563 0-1.047-.743-1.459-2.25-1.25-1.806.251-2.312-.23-2.566-2.437-.401-3.48-1.703-3.51-3.379-.08M1068.5 1910c4.374 4.4 8.178 8 8.453 8 .275 0-3.079-3.6-7.453-8-4.374-4.4-8.178-8-8.453-8-.275 0 3.079 3.6 7.453 8m841.5-2.622c0 .207.787.995 1.75 1.75 1.586 1.243 1.621 1.208.378-.378-1.307-1.666-2.128-2.195-2.128-1.372m-619.75 2.284c-1.738.702-1.563 3.833.3 5.38 1.276 1.058 1.822 1.014 3.088-.251 1.302-1.303 1.334-1.863.209-3.664-1.386-2.219-1.556-2.288-3.597-1.465m-84.713 8.943c-1.692 1.693-1.436 3.631 1.154 8.72 2.31 4.539 9.304 6.571 11.47 3.333 1.683-2.515-1.423-9.791-5.108-11.967-3.576-2.113-5.466-2.135-7.516-.086M1085 1927.378c0 .207.787.995 1.75 1.75 1.586 1.243 1.621 1.208.378-.378-1.307-1.666-2.128-2.195-2.128-1.372m-67.5 9.622c.995 1.1 2.035 2 2.31 2 .275 0-.315-.9-1.31-2-.995-1.1-2.035-2-2.31-2-.275 0 .315.9 1.31 2m258.607 3.371c-.904 1.09-.789 1.537.526 2.042 1.462.561 1.308 1.039-1.161 3.617-1.566 1.633-3.887 2.97-5.159 2.97-2.856 0-3.031 2.313-.39 5.148 2.131 2.287 4.077 1.745 4.077-1.134 0-1.028 1.222-2.83 2.716-4.006 2.423-1.905 2.841-1.967 3.861-.572 1.662 2.273 3.428 1.915 3.39-.686-.033-2.214-1.943-5.029-5.098-7.512-1.302-1.025-1.822-1-2.762.133m9.893 11.871c0 2.513-4.451 5.758-7.898 5.758-3.976 0-3.789 2.341.225 2.816 2.317.275 2.673.774 2.673 3.75 0 4.492 1.546 4.362 3.756-.316 1.125-2.382 2.496-3.787 3.758-3.852 3.814-.196 4.486-.405 4.486-1.398 0-.55-.659-1-1.465-1-1.611 0-3.715-3.243-3.299-5.084.145-.642-.298-1.372-.986-1.624-.687-.252-1.25.175-1.25.95m-246 7.136c0 .207.787.995 1.75 1.75 1.586 1.243 1.621 1.208.378-.378-1.307-1.666-2.128-2.195-2.128-1.372m207 15.487c0 4.543 2.592 8.309 6.967 10.121 4.379 1.814 6.419-.074 5.719-5.293-.73-5.44-4.046-8.693-8.86-8.693-3.775 0-3.826.052-3.826 3.865m-645.921 58.718c.048 1.165.285 1.402.604.605.289-.722.253-1.585-.079-1.917-.332-.332-.568.258-.525 1.312m1358 4c.048 1.165.285 1.402.604.605.289-.722.253-1.585-.079-1.917-.332-.332-.568.258-.525 1.312m-1358 13c.048 1.165.285 1.402.604.605.289-.722.253-1.585-.079-1.917-.332-.332-.568.258-.525 1.312m1358 8c.048 1.165.285 1.402.604.605.289-.722.253-1.585-.079-1.917-.332-.332-.568.258-.525 1.312m-761 122c.048 1.165.285 1.402.604.605.289-.722.253-1.585-.079-1.917-.332-.332-.568.258-.525 1.312m164.079 7.417c0 1.375.227 1.938.504 1.25.278-.687.278-1.812 0-2.5-.277-.687-.504-.125-.504 1.25m-164.079 37.583c.048 1.165.285 1.402.604.605.289-.722.253-1.585-.079-1.917-.332-.332-.568.258-.525 1.312m164 5c.048 1.165.285 1.402.604.605.289-.722.253-1.585-.079-1.917-.332-.332-.568.258-.525 1.312m-20.266 40.1c.721.289 1.584.253 1.916-.079.332-.332-.258-.568-1.312-.525-1.165.048-1.402.285-.604.604m-82.063.979c.688.278 1.813.278 2.5 0 .688-.277.125-.504-1.25-.504s-1.937.227-1.25.504m66 0c.688.278 1.813.278 2.5 0 .688-.277.125-.504-1.25-.504s-1.937.227-1.25.504M701 2281.378c0 .207.788.995 1.75 1.75 1.586 1.243 1.621 1.208.378-.378-1.307-1.666-2.128-2.195-2.128-1.372m1160.872 3.372c-1.243 1.586-1.208 1.621.378.378.963-.755 1.75-1.543 1.75-1.75 0-.823-.821-.294-2.128 1.372m-16.399 17.5l-6.973 7.25 7.25-6.973c3.987-3.835 7.25-7.098 7.25-7.25 0-.734-1.05.239-7.527 6.973M729.5 2310c.995 1.1 2.035 2 2.31 2 .275 0-.315-.9-1.31-2-.995-1.1-2.035-2-2.31-2-.275 0 .315.9 1.31 2m364.905 34.25l-1.905 2.25 2.25-1.905c2.114-1.79 2.705-2.595 1.905-2.595-.19 0-1.202 1.012-2.25 2.25m-13 13l-1.905 2.25 2.25-1.905c2.114-1.79 2.705-2.595 1.905-2.595-.19 0-1.202 1.012-2.25 2.25" fill="undefined" fill-rule="evenodd"/></svg>